<svg width="120" height="32" viewBox="0 0 120 32" fill="none" xmlns="http://www.w3.org/2000/svg">
<g clip-path="url(#clip0_470_8269)">
<path d="M28.313 26.4917C28.0566 26.7766 27.8002 27.0614 27.5248 27.3368C27.8002 27.0614 28.0661 26.7861 28.313 26.4917ZM13.7183 19.3606C11.1355 17.8508 11.1355 14.1095 13.7183 12.6187L21.7326 7.98488L27.5154 4.64245C24.6382 1.79379 20.6691 0.0371094 16.2916 0.0371094C7.47024 0.0371094 0.32959 7.17776 0.32959 15.9896C0.32959 24.8015 7.47024 31.9517 16.2916 31.9517C20.6786 31.9517 24.6477 30.1855 27.5248 27.3273L21.7326 23.9754L13.7183 19.3606Z" fill="#13CCF2"/>
<path fill-rule="evenodd" clip-rule="evenodd" d="M35.5963 6.73128V25.2571C35.5963 28.2577 32.3489 30.1188 29.7661 28.628L27.5156 27.3366C30.4403 24.4405 32.2444 20.4429 32.2444 15.9894C32.2444 11.555 30.4308 7.5384 27.5156 4.64226L29.7661 3.35086C32.3584 1.85057 35.5963 3.72119 35.5963 6.73128Z" fill="#C6F63F"/>
<path d="M57.4737 17.3182C56.8185 20.1574 54.8909 21.5152 52.479 21.5152C49.4784 21.5152 47.0666 19.0749 47.0666 15.8464C47.0666 12.6179 49.4784 10.2061 52.479 10.2061C54.9194 10.2061 56.847 11.5449 57.4452 14.2891L62.041 13.2066C61.1295 8.69626 57.1603 5.91406 52.479 5.91406C46.8387 5.91406 42.3853 10.282 42.3853 15.8369C42.3853 21.4203 46.8387 25.7598 52.479 25.7598C57.3597 25.7598 61.1864 22.9776 62.06 18.2203L57.4737 17.3182Z" fill="#262628"/>
<path d="M80.5858 6.96875L74.4137 18.6198L68.2416 6.96875H63.8071V25.3426H68.1941V15.4958L73.3786 25.3426H75.4582L80.6143 15.5527V25.3426H85.0012V6.96875H80.5858Z" fill="#262628"/>
<path d="M97.5735 11.5743V12.6758C96.5005 11.7168 95.0762 11.166 93.291 11.166C89.6447 11.166 86.5776 14.1286 86.5776 18.4586C86.5776 22.8171 89.6447 25.7512 93.291 25.7512C95.0762 25.7512 96.5005 25.2004 97.5735 24.2414V25.3334H101.96V11.5648H97.5735V11.5743ZM94.2026 22.0194C92.2845 22.0194 90.8791 20.5951 90.8791 18.4586C90.8791 16.3506 92.275 14.8978 94.2026 14.8978C95.9782 14.8978 97.5735 16.3506 97.5735 18.4586C97.5735 20.5951 95.9782 22.0194 94.2026 22.0194Z" fill="#262628"/>
<path d="M112.311 11.166C110.525 11.166 109.101 11.7168 108.028 12.6758V11.5743H103.641V29.9957H108.028V24.2414C109.101 25.2004 110.525 25.7512 112.311 25.7512C115.957 25.7512 119.024 22.8171 119.024 18.4586C119.024 14.1191 115.957 11.166 112.311 11.166ZM111.399 22.0194C109.614 22.0194 108.028 20.5951 108.028 18.4586C108.028 16.3506 109.614 14.8978 111.399 14.8978C113.317 14.8978 114.713 16.3506 114.713 18.4586C114.722 20.5951 113.327 22.0194 111.399 22.0194Z" fill="#262628"/>
<path fill-rule="evenodd" clip-rule="evenodd" d="M32.2344 15.9805C32.2344 20.415 30.4207 24.4316 27.5056 27.3277L21.7323 23.9853L13.7086 19.3704C11.1258 17.8607 11.1258 14.1194 13.7086 12.6286L21.7323 7.99478L27.5151 4.65234C30.4302 7.53899 32.2344 11.5651 32.2344 15.9805Z" fill="#01A3E6"/>
</g>
<defs>
<clipPath id="clip0_470_8269">
<rect width="118.694" height="32" fill="white" transform="translate(0.348633)"/>
</clipPath>
</defs>
</svg>